<svg xmlns="http://www.w3.org/2000/svg" viewBox="0 0 64 64">
  <rect width="64" height="64" fill="#6fc5ff"/>
  <rect x="4" y="4" width="56" height="56" fill="#ffe37a"/>
  <rect x="8" y="8" width="48" height="48" fill="#f3bb43"/>
  <rect x="12" y="12" width="40" height="40" fill="#fff3c0"/>

  <rect x="16" y="16" width="8" height="8" fill="#e15037"/>
  <rect x="24" y="24" width="8" height="8" fill="#e15037"/>
  <rect x="32" y="32" width="8" height="8" fill="#e15037"/>
  <rect x="40" y="40" width="8" height="8" fill="#e15037"/>

  <rect x="40" y="16" width="8" height="8" fill="#3f8fdd"/>
  <rect x="32" y="24" width="8" height="8" fill="#3f8fdd"/>
  <rect x="24" y="32" width="8" height="8" fill="#3f8fdd"/>
  <rect x="16" y="40" width="8" height="8" fill="#3f8fdd"/>

  <rect x="12" y="12" width="40" height="4" fill="#251b12"/>
  <rect x="12" y="48" width="40" height="4" fill="#251b12"/>
  <rect x="12" y="12" width="4" height="40" fill="#251b12"/>
  <rect x="48" y="12" width="4" height="40" fill="#251b12"/>
</svg>
